<mxfile host="app.diagrams.net" agent="Mozilla/5.0 (Windows NT 10.0; Win64; x64) AppleWebKit/537.36 (KHTML, like Gecko) Chrome/134.0.0.0 Safari/537.36" version="26.0.2">
  <diagram name="Trang-1" id="sg-L2C32j4_97fo_Z1_r">
    <mxGraphModel dx="841" dy="484" grid="0" gridSize="10" guides="1" tooltips="1" connect="1" arrows="1" fold="1" page="1" pageScale="1" pageWidth="827" pageHeight="1169" math="0" shadow="0">
      <root>
        <mxCell id="0" />
        <mxCell id="1" parent="0" />
        <mxCell id="lGmgEwFeBaMZa7N9zkFr-1" value="Bắt đầu&amp;nbsp;" style="ellipse;whiteSpace=wrap;html=1;" parent="1" vertex="1">
          <mxGeometry x="331" y="291" width="114" height="55" as="geometry" />
        </mxCell>
        <mxCell id="lGmgEwFeBaMZa7N9zkFr-2" value="Nhập số nguyên n" style="shape=parallelogram;perimeter=parallelogramPerimeter;whiteSpace=wrap;html=1;fixedSize=1;" parent="1" vertex="1">
          <mxGeometry x="318" y="406" width="144" height="60" as="geometry" />
        </mxCell>
        <mxCell id="lGmgEwFeBaMZa7N9zkFr-3" value="Kiểm tra&amp;nbsp; n % 2 == 0 ?" style="rounded=0;whiteSpace=wrap;html=1;" parent="1" vertex="1">
          <mxGeometry x="313" y="544" width="140" height="62" as="geometry" />
        </mxCell>
        <mxCell id="lGmgEwFeBaMZa7N9zkFr-4" value="In số chẵn&amp;nbsp;&amp;nbsp;" style="rhombus;whiteSpace=wrap;html=1;" parent="1" vertex="1">
          <mxGeometry x="204" y="676" width="150" height="80" as="geometry" />
        </mxCell>
        <mxCell id="lGmgEwFeBaMZa7N9zkFr-5" value="In số lẻ&amp;nbsp;" style="rhombus;whiteSpace=wrap;html=1;" parent="1" vertex="1">
          <mxGeometry x="414" y="676" width="150" height="80" as="geometry" />
        </mxCell>
        <mxCell id="lGmgEwFeBaMZa7N9zkFr-6" value="Kết thúc&amp;nbsp;" style="ellipse;whiteSpace=wrap;html=1;" parent="1" vertex="1">
          <mxGeometry x="331" y="772" width="114" height="55" as="geometry" />
        </mxCell>
        <mxCell id="lGmgEwFeBaMZa7N9zkFr-7" value="" style="endArrow=classic;html=1;rounded=0;entryX=0.5;entryY=0;entryDx=0;entryDy=0;" parent="1" source="lGmgEwFeBaMZa7N9zkFr-4" target="lGmgEwFeBaMZa7N9zkFr-6" edge="1">
          <mxGeometry width="50" height="50" relative="1" as="geometry">
            <mxPoint x="386" y="831" as="sourcePoint" />
            <mxPoint x="436" y="781" as="targetPoint" />
          </mxGeometry>
        </mxCell>
        <mxCell id="lGmgEwFeBaMZa7N9zkFr-8" value="" style="endArrow=classic;html=1;rounded=0;entryX=0.5;entryY=0;entryDx=0;entryDy=0;" parent="1" source="lGmgEwFeBaMZa7N9zkFr-5" target="lGmgEwFeBaMZa7N9zkFr-6" edge="1">
          <mxGeometry width="50" height="50" relative="1" as="geometry">
            <mxPoint x="327" y="746" as="sourcePoint" />
            <mxPoint x="398" y="782" as="targetPoint" />
          </mxGeometry>
        </mxCell>
        <mxCell id="lGmgEwFeBaMZa7N9zkFr-9" value="" style="endArrow=classic;html=1;rounded=0;entryX=0.352;entryY=0.165;entryDx=0;entryDy=0;entryPerimeter=0;exitX=0.5;exitY=1;exitDx=0;exitDy=0;" parent="1" source="lGmgEwFeBaMZa7N9zkFr-3" target="lGmgEwFeBaMZa7N9zkFr-5" edge="1">
          <mxGeometry width="50" height="50" relative="1" as="geometry">
            <mxPoint x="386" y="614" as="sourcePoint" />
            <mxPoint x="469.6500000000001" y="699.4000000000001" as="targetPoint" />
            <Array as="points" />
          </mxGeometry>
        </mxCell>
        <mxCell id="lGmgEwFeBaMZa7N9zkFr-11" value="" style="endArrow=classic;html=1;rounded=0;exitX=0.5;exitY=1;exitDx=0;exitDy=0;" parent="1" source="lGmgEwFeBaMZa7N9zkFr-3" target="lGmgEwFeBaMZa7N9zkFr-4" edge="1">
          <mxGeometry width="50" height="50" relative="1" as="geometry">
            <mxPoint x="378" y="612" as="sourcePoint" />
            <mxPoint x="462" y="706" as="targetPoint" />
            <Array as="points" />
          </mxGeometry>
        </mxCell>
        <mxCell id="lGmgEwFeBaMZa7N9zkFr-15" value="" style="endArrow=classic;html=1;rounded=0;exitX=0.5;exitY=1;exitDx=0;exitDy=0;entryX=0.55;entryY=-0.032;entryDx=0;entryDy=0;entryPerimeter=0;" parent="1" source="lGmgEwFeBaMZa7N9zkFr-2" target="lGmgEwFeBaMZa7N9zkFr-3" edge="1">
          <mxGeometry width="50" height="50" relative="1" as="geometry">
            <mxPoint x="386" y="564" as="sourcePoint" />
            <mxPoint x="436" y="514" as="targetPoint" />
          </mxGeometry>
        </mxCell>
        <mxCell id="lGmgEwFeBaMZa7N9zkFr-16" value="" style="endArrow=classic;html=1;rounded=0;exitX=0.5;exitY=1;exitDx=0;exitDy=0;entryX=0.5;entryY=0;entryDx=0;entryDy=0;" parent="1" source="lGmgEwFeBaMZa7N9zkFr-1" target="lGmgEwFeBaMZa7N9zkFr-2" edge="1">
          <mxGeometry width="50" height="50" relative="1" as="geometry">
            <mxPoint x="386" y="564" as="sourcePoint" />
            <mxPoint x="436" y="514" as="targetPoint" />
          </mxGeometry>
        </mxCell>
      </root>
    </mxGraphModel>
  </diagram>
</mxfile>
